<?xml version="1.0" standalone="no"?>
<!DOCTYPE svg PUBLIC "-//W3C//DTD SVG 20010904//EN"
 "http://www.w3.org/TR/2001/REC-SVG-20010904/DTD/svg10.dtd">
<svg version="1.0" xmlns="http://www.w3.org/2000/svg"
 width="256.000000pt" height="256.000000pt" viewBox="0 0 256.000000 256.000000"
 preserveAspectRatio="xMidYMid meet">

<g transform="translate(0.000000,256.000000) scale(0.100000,-0.100000)"
fill="#000000" stroke="none">
<path d="M1856 2290 c-120 -44 -225 -85 -232 -91 -19 -16 -18 -151 1 -215 18
-62 52 -94 136 -132 36 -17 69 -37 73 -47 15 -41 -18 -110 -91 -186 l-55 -58
-141 93 c-78 51 -177 114 -219 140 -62 38 -81 55 -98 92 -39 79 -20 130 89
247 36 39 43 52 35 65 -17 27 -139 63 -234 69 -104 7 -173 -11 -250 -62 l-53
-35 -56 21 c-70 26 -190 36 -251 19 -58 -15 -121 -80 -144 -146 -31 -91 -14
-112 58 -73 42 22 48 22 122 11 92 -14 118 -30 173 -99 46 -59 72 -75 150 -93
62 -15 91 -39 91 -77 0 -15 -24 -77 -52 -138 -52 -108 -53 -111 -52 -200 0
-72 6 -103 27 -158 29 -75 32 -70 -53 -86 -112 -20 -245 -33 -477 -44 -230
-12 -238 -13 -241 -33 -7 -48 174 -187 309 -238 167 -63 390 -73 564 -26 131
36 123 36 155 -1 l29 -34 1 -152 0 -153 -77 0 c-89 0 -106 -7 -101 -41 l3 -24
191 -3 c165 -2 193 0 205 14 9 11 10 20 2 32 -8 13 -28 18 -87 20 l-76 3 0
114 c0 63 3 115 6 115 3 0 49 -40 102 -89 53 -49 121 -109 149 -133 l53 -43 0
-87 0 -87 -81 -3 c-63 -2 -84 -7 -92 -20 -8 -12 -7 -21 2 -32 12 -14 40 -16
205 -14 l191 3 0 30 0 30 -77 3 -78 3 0 143 c0 79 -3 172 -6 207 l-6 64 106
-107 c85 -86 112 -108 134 -108 15 1 108 16 207 35 l180 34 87 -60 c123 -84
152 -78 129 26 -32 141 -223 453 -443 723 l-59 72 85 81 c145 137 212 255 210
374 -1 125 -59 215 -181 279 -53 29 -58 34 -61 69 -4 46 20 99 82 181 36 47
43 63 35 78 -5 10 -15 18 -22 18 -7 -1 -110 -37 -231 -80z m95 -82 c-19 -39
-26 -69 -26 -111 0 -54 2 -61 35 -89 19 -16 60 -44 90 -62 80 -46 115 -107
115 -200 0 -103 -33 -164 -163 -296 l-103 -105 -32 36 c-86 94 -117 131 -117
136 0 2 23 30 50 61 66 74 100 143 100 203 0 63 -26 93 -117 134 -62 29 -76
40 -89 70 -16 39 -21 152 -8 165 8 7 267 107 285 109 3 1 -6 -23 -20 -51z
m-749 -19 c29 -6 55 -13 57 -15 2 -2 -15 -24 -37 -49 -55 -63 -75 -110 -75
-175 0 -62 25 -120 70 -161 15 -15 75 -55 133 -89 267 -160 348 -226 488 -394
141 -169 266 -335 356 -471 70 -105 170 -290 164 -304 -8 -21 -749 522 -852
623 -80 80 -169 198 -219 294 -32 60 -43 73 -60 70 -35 -5 -32 -42 8 -116 119
-217 232 -328 620 -607 309 -222 291 -207 269 -215 -10 -4 -79 -17 -152 -30
l-133 -23 -131 137 c-172 180 -174 180 -170 -1 1 -73 -1 -133 -6 -133 -16 0
-350 330 -413 408 -105 130 -199 350 -199 465 0 57 6 75 52 168 94 191 68 265
-112 314 -48 12 -61 22 -98 70 -23 30 -57 64 -74 75 -38 23 -123 42 -190 44
-27 1 -48 4 -48 7 0 17 56 59 87 65 66 12 168 -1 218 -30 26 -14 54 -26 61
-26 8 0 37 18 66 40 29 22 71 46 93 54 49 18 156 20 227 5z m-249 -1121 c8
-18 35 -63 60 -100 l45 -68 -50 -15 c-92 -27 -172 -38 -283 -38 -122 0 -212
18 -311 63 -67 30 -184 106 -184 119 0 4 80 11 178 14 169 6 378 27 459 46 64
15 72 13 86 -21z"/>
</g>
</svg>
